<svg xmlns="http://www.w3.org/2000/svg" width="111" height="34" fill="none"><ellipse fill="#F8D24E" rx="2.726" ry="2.928" transform="matrix(.98669 -.16302 .14084 .9901 88.255 19.341)"/><ellipse fill="#F8D24E" rx="2.726" ry="2.928" transform="matrix(.98669 -.16302 .14084 .9901 93.534 14.512)"/><ellipse fill="#F8D24E" rx="2.726" ry="2.928" transform="matrix(.98669 -.16302 .14084 .9901 99.64 9.054)"/><ellipse fill="#F8D24E" rx="2.726" ry="2.928" transform="matrix(.98669 -.16302 .14084 .9901 105.366 4.152)"/><ellipse cx="2.72" cy="17.551" fill="#F8D24E" rx="2.72" ry="2.82"/><ellipse cx="8.611" cy="13.791" fill="#F8D24E" rx="2.72" ry="2.82"/><ellipse cx="15.413" cy="9.562" fill="#F8D24E" rx="2.72" ry="2.82"/><ellipse cx="21.758" cy="5.802" fill="#F8D24E" rx="2.72" ry="2.82"/><ellipse cx="5.44" cy="24.6" fill="#F8D24E" rx="2.72" ry="2.82"/><ellipse cx="11.333" cy="20.84" fill="#F8D24E" rx="2.72" ry="2.82"/><ellipse cx="18.134" cy="16.611" fill="#F8D24E" rx="2.72" ry="2.82"/><ellipse cx="24.479" cy="12.851" fill="#F8D24E" rx="2.72" ry="2.82"/><ellipse cx="12.238" cy="28.36" fill="#F8D24E" rx="2.72" ry="2.82"/><ellipse cx="18.132" cy="24.6" fill="#F8D24E" rx="2.72" ry="2.82"/><ellipse cx="24.931" cy="20.371" fill="#F8D24E" rx="2.72" ry="2.82"/><ellipse cx="31.276" cy="16.611" fill="#F8D24E" rx="2.72" ry="2.82"/><ellipse cx="19.943" cy="30.71" fill="#F8D24E" rx="2.72" ry="2.82"/><ellipse cx="25.836" cy="26.95" fill="#F8D24E" rx="2.72" ry="2.82"/><ellipse cx="32.638" cy="22.721" fill="#F8D24E" rx="2.72" ry="2.82"/><ellipse cx="38.981" cy="18.961" fill="#F8D24E" rx="2.72" ry="2.82"/><ellipse cx="29.917" cy="31.18" fill="#F8D24E" rx="2.72" ry="2.82"/><ellipse cx="35.81" cy="27.421" fill="#F8D24E" rx="2.72" ry="2.82"/><ellipse cx="42.61" cy="23.191" fill="#F8D24E" rx="2.72" ry="2.82"/><ellipse cx="48.955" cy="19.431" fill="#F8D24E" rx="2.72" ry="2.82"/><ellipse cx="41.704" cy="31.18" fill="#F8D24E" rx="2.72" ry="2.82"/><ellipse cx="47.596" cy="27.42" fill="#F8D24E" rx="2.72" ry="2.82"/><ellipse cx="54.396" cy="23.19" fill="#F8D24E" rx="2.72" ry="2.82"/><ellipse cx="60.742" cy="19.431" fill="#F8D24E" rx="2.72" ry="2.82"/><ellipse cx="51.674" cy="30.71" fill="#F8D24E" rx="2.72" ry="2.82"/><ellipse cx="57.566" cy="26.95" fill="#F8D24E" rx="2.72" ry="2.82"/><ellipse cx="64.367" cy="22.721" fill="#F8D24E" rx="2.72" ry="2.82"/><ellipse cx="70.712" cy="18.961" fill="#F8D24E" rx="2.72" ry="2.82"/><ellipse cx="63.006" cy="30.24" fill="#F8D24E" rx="2.72" ry="2.82"/><ellipse cx="68.898" cy="26.48" fill="#F8D24E" rx="2.72" ry="2.82"/><ellipse cx="75.699" cy="22.251" fill="#F8D24E" rx="2.72" ry="2.82"/><ellipse cx="82.044" cy="18.491" fill="#F8D24E" rx="2.72" ry="2.82"/><ellipse cx="73.432" cy="18.021" fill="#F8D24E" rx="2.72" ry="2.82"/><ellipse cx="79.324" cy="14.261" fill="#F8D24E" rx="2.72" ry="2.82"/><ellipse cx="86.124" cy="10.031" fill="#F8D24E" rx="2.72" ry="2.82"/><ellipse cx="92.47" cy="6.271" fill="#F8D24E" rx="2.72" ry="2.82"/></svg>