<svg xmlns="http://www.w3.org/2000/svg" width="131" height="52" fill="none"><ellipse cx="50.554" cy="48.127" fill="#F8D24E" rx="2.681" ry="2.89"/><ellipse cx="56.365" cy="44.274" fill="#F8D24E" rx="2.681" ry="2.89"/><ellipse cx="63.067" cy="39.939" fill="#F8D24E" rx="2.681" ry="2.89"/><ellipse cx="69.325" cy="36.086" fill="#F8D24E" rx="2.681" ry="2.89"/><ellipse cx="65.748" cy="46.2" fill="#F8D24E" rx="2.681" ry="2.89"/><ellipse cx="71.558" cy="42.347" fill="#F8D24E" rx="2.681" ry="2.89"/><ellipse cx="78.261" cy="38.013" fill="#F8D24E" rx="2.681" ry="2.89"/><ellipse cx="84.519" cy="34.16" fill="#F8D24E" rx="2.681" ry="2.89"/><ellipse cx="78.711" cy="44.756" fill="#F8D24E" rx="2.681" ry="2.89"/><ellipse cx="84.521" cy="40.902" fill="#F8D24E" rx="2.681" ry="2.89"/><ellipse cx="91.225" cy="36.568" fill="#F8D24E" rx="2.681" ry="2.89"/><ellipse cx="97.479" cy="32.715" fill="#F8D24E" rx="2.681" ry="2.89"/><ellipse cx="91.222" cy="42.829" fill="#F8D24E" rx="2.681" ry="2.89"/><ellipse cx="97.031" cy="38.976" fill="#F8D24E" rx="2.681" ry="2.89"/><ellipse cx="103.735" cy="34.641" fill="#F8D24E" rx="2.681" ry="2.89"/><ellipse cx="109.992" cy="30.788" fill="#F8D24E" rx="2.681" ry="2.89"/><ellipse cx="95.246" cy="48.127" fill="#F8D24E" rx="2.681" ry="2.89"/><ellipse cx="101.056" cy="44.274" fill="#F8D24E" rx="2.681" ry="2.89"/><ellipse cx="109.1" cy="48.608" fill="#F8D24E" rx="2.681" ry="2.89"/><ellipse cx="107.761" cy="39.939" fill="#F8D24E" rx="2.681" ry="2.89"/><ellipse cx="115.804" cy="44.274" fill="#F8D24E" rx="2.681" ry="2.89"/><ellipse cx="122.061" cy="48.608" fill="#F8D24E" rx="2.681" ry="2.89"/><ellipse cx="114.016" cy="36.086" fill="#F8D24E" rx="2.681" ry="2.89"/><ellipse cx="122.061" cy="40.42" fill="#F8D24E" rx="2.681" ry="2.89"/><ellipse cx="128.318" cy="44.755" fill="#F8D24E" rx="2.681" ry="2.89"/><ellipse cx="23.296" cy="16.34" fill="#F8D24E" rx="2.681" ry="2.89"/><ellipse cx="29.104" cy="12.486" fill="#F8D24E" rx="2.681" ry="2.89"/><ellipse cx="35.81" cy="8.152" fill="#F8D24E" rx="2.681" ry="2.89"/><ellipse cx="42.064" cy="4.299" fill="#F8D24E" rx="2.681" ry="2.89"/><ellipse cx="12.121" cy="15.857" fill="#F8D24E" rx="2.681" ry="2.89"/><ellipse cx="17.93" cy="12.004" fill="#F8D24E" rx="2.681" ry="2.89"/><ellipse cx="24.634" cy="7.67" fill="#F8D24E" rx="2.681" ry="2.89"/><ellipse cx="30.89" cy="3.817" fill="#F8D24E" rx="2.681" ry="2.89"/><ellipse cx="37.147" cy="48.127" fill="#F8D24E" rx="2.681" ry="2.89"/><ellipse cx="42.956" cy="44.274" fill="#F8D24E" rx="2.681" ry="2.89"/><ellipse cx="49.66" cy="39.939" fill="#F8D24E" rx="2.681" ry="2.89"/><ellipse cx="55.917" cy="36.086" fill="#F8D24E" rx="2.681" ry="2.89"/><ellipse cx="29.997" cy="45.237" fill="#F8D24E" rx="2.681" ry="2.89"/><ellipse cx="35.806" cy="41.384" fill="#F8D24E" rx="2.681" ry="2.89"/><ellipse cx="42.51" cy="37.049" fill="#F8D24E" rx="2.681" ry="2.89"/><ellipse cx="48.766" cy="33.196" fill="#F8D24E" rx="2.681" ry="2.89"/><ellipse cx="32.678" cy="35.123" fill="#F8D24E" rx="2.681" ry="2.89"/><ellipse cx="38.487" cy="31.27" fill="#F8D24E" rx="2.681" ry="2.89"/><ellipse cx="45.193" cy="26.935" fill="#F8D24E" rx="2.681" ry="2.89"/><ellipse cx="51.448" cy="23.082" fill="#F8D24E" rx="2.681" ry="2.89"/><ellipse cx="32.678" cy="18.265" fill="#F8D24E" rx="2.681" ry="2.89"/><ellipse cx="38.487" cy="14.412" fill="#F8D24E" rx="2.681" ry="2.89"/><ellipse cx="45.193" cy="10.078" fill="#F8D24E" rx="2.681" ry="2.89"/><ellipse cx="51.448" cy="6.225" fill="#F8D24E" rx="2.681" ry="2.89"/><ellipse cx="31.338" cy="27.417" fill="#F8D24E" rx="2.681" ry="2.89"/><ellipse cx="37.148" cy="23.564" fill="#F8D24E" rx="2.681" ry="2.89"/><ellipse cx="43.851" cy="19.229" fill="#F8D24E" rx="2.681" ry="2.89"/><ellipse cx="50.107" cy="15.376" fill="#F8D24E" rx="2.681" ry="2.89"/><ellipse cx="3.182" cy="13.449" fill="#F8D24E" rx="2.681" ry="2.89"/><ellipse cx="8.993" cy="9.596" fill="#F8D24E" rx="2.681" ry="2.89"/><ellipse cx="15.697" cy="5.262" fill="#F8D24E" rx="2.681" ry="2.89"/><path fill="#F8D24E" d="M15.25 16.339c1.48 0 2.681-1.294 2.681-2.89s-1.2-2.89-2.681-2.89-2.682 1.294-2.682 2.89 1.2 2.89 2.682 2.89Z"/></svg>