<svg xmlns="http://www.w3.org/2000/svg" width="111" height="34" fill="none"><ellipse cx="4.005" cy="28" fill="#F8D24E" rx="4.005" ry="4"/><ellipse cx="12.015" cy="23" fill="#F8D24E" rx="4.005" ry="4"/><ellipse cx="22.029" cy="17" fill="#F8D24E" rx="4.005" ry="4"/><ellipse cx="30.039" cy="12" fill="#F8D24E" rx="4.005" ry="4"/><ellipse cx="52.068" cy="30" fill="#F8D24E" rx="4.005" ry="4"/><ellipse cx="60.078" cy="25" fill="#F8D24E" rx="4.005" ry="4"/><ellipse cx="70.091" cy="19" fill="#F8D24E" rx="4.005" ry="4"/><ellipse cx="78.102" cy="14" fill="#F8D24E" rx="4.005" ry="4"/><ellipse cx="70.592" cy="27" fill="#F8D24E" rx="3.505" ry="4"/><ellipse cx="78.602" cy="22" fill="#F8D24E" rx="3.505" ry="4"/><ellipse cx="87.614" cy="17" fill="#F8D24E" rx="3.505" ry="4"/><ellipse cx="96.626" cy="12" fill="#F8D24E" rx="3.505" ry="4"/><ellipse cx="106.639" cy="4" fill="#F8D24E" rx="3.505" ry="4"/><ellipse cx="85.612" cy="8" fill="#F8D24E" rx="3.505" ry="4"/><ellipse cx="34.044" cy="30" fill="#F8D24E" rx="4.005" ry="4"/><ellipse cx="42.054" cy="25" fill="#F8D24E" rx="4.005" ry="4"/><ellipse cx="52.068" cy="19" fill="#F8D24E" rx="4.005" ry="4"/><ellipse cx="60.078" cy="14" fill="#F8D24E" rx="4.005" ry="4"/><ellipse cx="18.023" cy="29" fill="#F8D24E" rx="4.005" ry="4"/><ellipse cx="26.034" cy="24" fill="#F8D24E" rx="4.005" ry="4"/><ellipse cx="36.047" cy="18" fill="#F8D24E" rx="4.005" ry="4"/><ellipse cx="44.057" cy="13" fill="#F8D24E" rx="4.005" ry="4"/></svg>