<svg xmlns="http://www.w3.org/2000/svg" width="1024" height="1024">
  <path d="m552.095 511.998 235.807-235.805a28.45 28.45 0 0 0-1.495-38.615 28.442 28.442 0 0 0-38.615-1.492L511.989 471.89 276.184 235.801a28.561 28.561 0 0 0-40.391 40.391l236.089 235.805L235.793 747.8a28.455 28.455 0 0 0-9.921 20.506 28.408 28.408 0 0 0 1.938 11.474 28.452 28.452 0 0 0 16.108 16.112 28.432 28.432 0 0 0 11.474 1.935 28.427 28.427 0 0 0 11.29-2.816 28.525 28.525 0 0 0 9.217-7.101l236.089-235.807L747.791 787.91a28.452 28.452 0 0 0 38.615-1.495 28.449 28.449 0 0 0 1.495-38.615L552.094 511.997z"/>
</svg>
